<?xml version="1.0" encoding="utf-8" standalone="no"?>
<!DOCTYPE svg PUBLIC "-//W3C//DTD SVG 1.1//EN"
  "http://www.w3.org/Graphics/SVG/1.1/DTD/svg11.dtd">
<svg xmlns:xlink="http://www.w3.org/1999/xlink" width="576pt" height="360pt" viewBox="0 0 576 360" xmlns="http://www.w3.org/2000/svg" version="1.1">
 <metadata>
  <rdf:RDF xmlns:dc="http://purl.org/dc/elements/1.1/" xmlns:cc="http://creativecommons.org/ns#" xmlns:rdf="http://www.w3.org/1999/02/22-rdf-syntax-ns#">
   <cc:Work>
    <dc:type rdf:resource="http://purl.org/dc/dcmitype/StillImage"/>
    <dc:date>2026-01-07T15:12:00.423883</dc:date>
    <dc:format>image/svg+xml</dc:format>
    <dc:creator>
     <cc:Agent>
      <dc:title>Matplotlib v3.10.8, https://matplotlib.org/</dc:title>
     </cc:Agent>
    </dc:creator>
   </cc:Work>
  </rdf:RDF>
 </metadata>
 <defs>
  <style type="text/css">*{stroke-linejoin: round; stroke-linecap: butt}</style>
 </defs>
 <g id="figure_1">
  <g id="patch_1">
   <path d="M 0 360 
L 576 360 
L 576 0 
L 0 0 
z
" style="fill: #ffffff"/>
  </g>
  <g id="axes_1">
   <g id="patch_2">
    <path d="M 72.66 325.9 
L 559.8 325.9 
L 559.8 35.88 
L 72.66 35.88 
z
" style="fill: #ffffff"/>
   </g>
   <g id="matplotlib.axis_1">
    <g id="xtick_1">
     <g id="line2d_1"/>
     <g id="text_1">
      <!-- cluster 1 -->
      <g style="fill: #262626" transform="translate(161.783672 340.797656) scale(0.15 -0.15)">
       <defs>
        <path id="DejaVuSans-63" d="M 3122 3366 
L 3122 2828 
Q 2878 2963 2633 3030 
Q 2388 3097 2138 3097 
Q 1578 3097 1268 2742 
Q 959 2388 959 1747 
Q 959 1106 1268 751 
Q 1578 397 2138 397 
Q 2388 397 2633 464 
Q 2878 531 3122 666 
L 3122 134 
Q 2881 22 2623 -34 
Q 2366 -91 2075 -91 
Q 1284 -91 818 406 
Q 353 903 353 1747 
Q 353 2603 823 3093 
Q 1294 3584 2113 3584 
Q 2378 3584 2631 3529 
Q 2884 3475 3122 3366 
z
" transform="scale(0.015625)"/>
        <path id="DejaVuSans-6c" d="M 603 4863 
L 1178 4863 
L 1178 0 
L 603 0 
L 603 4863 
z
" transform="scale(0.015625)"/>
        <path id="DejaVuSans-75" d="M 544 1381 
L 544 3500 
L 1119 3500 
L 1119 1403 
Q 1119 906 1312 657 
Q 1506 409 1894 409 
Q 2359 409 2629 706 
Q 2900 1003 2900 1516 
L 2900 3500 
L 3475 3500 
L 3475 0 
L 2900 0 
L 2900 538 
Q 2691 219 2414 64 
Q 2138 -91 1772 -91 
Q 1169 -91 856 284 
Q 544 659 544 1381 
z
M 1991 3584 
L 1991 3584 
z
" transform="scale(0.015625)"/>
        <path id="DejaVuSans-73" d="M 2834 3397 
L 2834 2853 
Q 2591 2978 2328 3040 
Q 2066 3103 1784 3103 
Q 1356 3103 1142 2972 
Q 928 2841 928 2578 
Q 928 2378 1081 2264 
Q 1234 2150 1697 2047 
L 1894 2003 
Q 2506 1872 2764 1633 
Q 3022 1394 3022 966 
Q 3022 478 2636 193 
Q 2250 -91 1575 -91 
Q 1294 -91 989 -36 
Q 684 19 347 128 
L 347 722 
Q 666 556 975 473 
Q 1284 391 1588 391 
Q 1994 391 2212 530 
Q 2431 669 2431 922 
Q 2431 1156 2273 1281 
Q 2116 1406 1581 1522 
L 1381 1569 
Q 847 1681 609 1914 
Q 372 2147 372 2553 
Q 372 3047 722 3315 
Q 1072 3584 1716 3584 
Q 2034 3584 2315 3537 
Q 2597 3491 2834 3397 
z
" transform="scale(0.015625)"/>
        <path id="DejaVuSans-74" d="M 1172 4494 
L 1172 3500 
L 2356 3500 
L 2356 3053 
L 1172 3053 
L 1172 1153 
Q 1172 725 1289 603 
Q 1406 481 1766 481 
L 2356 481 
L 2356 0 
L 1766 0 
Q 1100 0 847 248 
Q 594 497 594 1153 
L 594 3053 
L 172 3053 
L 172 3500 
L 594 3500 
L 594 4494 
L 1172 4494 
z
" transform="scale(0.015625)"/>
        <path id="DejaVuSans-65" d="M 3597 1894 
L 3597 1613 
L 953 1613 
Q 991 1019 1311 708 
Q 1631 397 2203 397 
Q 2534 397 2845 478 
Q 3156 559 3463 722 
L 3463 178 
Q 3153 47 2828 -22 
Q 2503 -91 2169 -91 
Q 1331 -91 842 396 
Q 353 884 353 1716 
Q 353 2575 817 3079 
Q 1281 3584 2069 3584 
Q 2775 3584 3186 3129 
Q 3597 2675 3597 1894 
z
M 3022 2063 
Q 3016 2534 2758 2815 
Q 2500 3097 2075 3097 
Q 1594 3097 1305 2825 
Q 1016 2553 972 2059 
L 3022 2063 
z
" transform="scale(0.015625)"/>
        <path id="DejaVuSans-72" d="M 2631 2963 
Q 2534 3019 2420 3045 
Q 2306 3072 2169 3072 
Q 1681 3072 1420 2755 
Q 1159 2438 1159 1844 
L 1159 0 
L 581 0 
L 581 3500 
L 1159 3500 
L 1159 2956 
Q 1341 3275 1631 3429 
Q 1922 3584 2338 3584 
Q 2397 3584 2469 3576 
Q 2541 3569 2628 3553 
L 2631 2963 
z
" transform="scale(0.015625)"/>
        <path id="DejaVuSans-20" transform="scale(0.015625)"/>
        <path id="DejaVuSans-31" d="M 794 531 
L 1825 531 
L 1825 4091 
L 703 3866 
L 703 4441 
L 1819 4666 
L 2450 4666 
L 2450 531 
L 3481 531 
L 3481 0 
L 794 0 
L 794 531 
z
" transform="scale(0.015625)"/>
       </defs>
       <use xlink:href="#DejaVuSans-63"/>
       <use xlink:href="#DejaVuSans-6c" transform="translate(54.980469 0)"/>
       <use xlink:href="#DejaVuSans-75" transform="translate(82.763672 0)"/>
       <use xlink:href="#DejaVuSans-73" transform="translate(146.142578 0)"/>
       <use xlink:href="#DejaVuSans-74" transform="translate(198.242188 0)"/>
       <use xlink:href="#DejaVuSans-65" transform="translate(237.451172 0)"/>
       <use xlink:href="#DejaVuSans-72" transform="translate(298.974609 0)"/>
       <use xlink:href="#DejaVuSans-20" transform="translate(340.087891 0)"/>
       <use xlink:href="#DejaVuSans-31" transform="translate(371.875 0)"/>
      </g>
     </g>
    </g>
    <g id="xtick_2">
     <g id="line2d_2"/>
     <g id="text_2">
      <!-- cluster 2 -->
      <g style="fill: #262626" transform="translate(405.353672 340.797656) scale(0.15 -0.15)">
       <defs>
        <path id="DejaVuSans-32" d="M 1228 531 
L 3431 531 
L 3431 0 
L 469 0 
L 469 531 
Q 828 903 1448 1529 
Q 2069 2156 2228 2338 
Q 2531 2678 2651 2914 
Q 2772 3150 2772 3378 
Q 2772 3750 2511 3984 
Q 2250 4219 1831 4219 
Q 1534 4219 1204 4116 
Q 875 4013 500 3803 
L 500 4441 
Q 881 4594 1212 4672 
Q 1544 4750 1819 4750 
Q 2544 4750 2975 4387 
Q 3406 4025 3406 3419 
Q 3406 3131 3298 2873 
Q 3191 2616 2906 2266 
Q 2828 2175 2409 1742 
Q 1991 1309 1228 531 
z
" transform="scale(0.015625)"/>
       </defs>
       <use xlink:href="#DejaVuSans-63"/>
       <use xlink:href="#DejaVuSans-6c" transform="translate(54.980469 0)"/>
       <use xlink:href="#DejaVuSans-75" transform="translate(82.763672 0)"/>
       <use xlink:href="#DejaVuSans-73" transform="translate(146.142578 0)"/>
       <use xlink:href="#DejaVuSans-74" transform="translate(198.242188 0)"/>
       <use xlink:href="#DejaVuSans-65" transform="translate(237.451172 0)"/>
       <use xlink:href="#DejaVuSans-72" transform="translate(298.974609 0)"/>
       <use xlink:href="#DejaVuSans-20" transform="translate(340.087891 0)"/>
       <use xlink:href="#DejaVuSans-32" transform="translate(371.875 0)"/>
      </g>
     </g>
    </g>
   </g>
   <g id="matplotlib.axis_2">
    <g id="ytick_1">
     <g id="line2d_3"/>
     <g id="text_3">
      <!-- −20 -->
      <g style="fill: #262626" transform="translate(37.502969 323.312542) scale(0.15 -0.15)">
       <defs>
        <path id="DejaVuSans-2212" d="M 678 2272 
L 4684 2272 
L 4684 1741 
L 678 1741 
L 678 2272 
z
" transform="scale(0.015625)"/>
        <path id="DejaVuSans-30" d="M 2034 4250 
Q 1547 4250 1301 3770 
Q 1056 3291 1056 2328 
Q 1056 1369 1301 889 
Q 1547 409 2034 409 
Q 2525 409 2770 889 
Q 3016 1369 3016 2328 
Q 3016 3291 2770 3770 
Q 2525 4250 2034 4250 
z
M 2034 4750 
Q 2819 4750 3233 4129 
Q 3647 3509 3647 2328 
Q 3647 1150 3233 529 
Q 2819 -91 2034 -91 
Q 1250 -91 836 529 
Q 422 1150 422 2328 
Q 422 3509 836 4129 
Q 1250 4750 2034 4750 
z
" transform="scale(0.015625)"/>
       </defs>
       <use xlink:href="#DejaVuSans-2212"/>
       <use xlink:href="#DejaVuSans-32" transform="translate(83.789062 0)"/>
       <use xlink:href="#DejaVuSans-30" transform="translate(147.412109 0)"/>
      </g>
     </g>
    </g>
    <g id="ytick_2">
     <g id="line2d_4"/>
     <g id="text_4">
      <!-- 0 -->
      <g style="fill: #262626" transform="translate(59.61625 290.1674) scale(0.15 -0.15)">
       <use xlink:href="#DejaVuSans-30"/>
      </g>
     </g>
    </g>
    <g id="ytick_3">
     <g id="line2d_5"/>
     <g id="text_5">
      <!-- 20 -->
      <g style="fill: #262626" transform="translate(50.0725 257.022257) scale(0.15 -0.15)">
       <use xlink:href="#DejaVuSans-32"/>
       <use xlink:href="#DejaVuSans-30" transform="translate(63.623047 0)"/>
      </g>
     </g>
    </g>
    <g id="ytick_4">
     <g id="line2d_6"/>
     <g id="text_6">
      <!-- 40 -->
      <g style="fill: #262626" transform="translate(50.0725 223.877114) scale(0.15 -0.15)">
       <defs>
        <path id="DejaVuSans-34" d="M 2419 4116 
L 825 1625 
L 2419 1625 
L 2419 4116 
z
M 2253 4666 
L 3047 4666 
L 3047 1625 
L 3713 1625 
L 3713 1100 
L 3047 1100 
L 3047 0 
L 2419 0 
L 2419 1100 
L 313 1100 
L 313 1709 
L 2253 4666 
z
" transform="scale(0.015625)"/>
       </defs>
       <use xlink:href="#DejaVuSans-34"/>
       <use xlink:href="#DejaVuSans-30" transform="translate(63.623047 0)"/>
      </g>
     </g>
    </g>
    <g id="ytick_5">
     <g id="line2d_7"/>
     <g id="text_7">
      <!-- 60 -->
      <g style="fill: #262626" transform="translate(50.0725 190.731971) scale(0.15 -0.15)">
       <defs>
        <path id="DejaVuSans-36" d="M 2113 2584 
Q 1688 2584 1439 2293 
Q 1191 2003 1191 1497 
Q 1191 994 1439 701 
Q 1688 409 2113 409 
Q 2538 409 2786 701 
Q 3034 994 3034 1497 
Q 3034 2003 2786 2293 
Q 2538 2584 2113 2584 
z
M 3366 4563 
L 3366 3988 
Q 3128 4100 2886 4159 
Q 2644 4219 2406 4219 
Q 1781 4219 1451 3797 
Q 1122 3375 1075 2522 
Q 1259 2794 1537 2939 
Q 1816 3084 2150 3084 
Q 2853 3084 3261 2657 
Q 3669 2231 3669 1497 
Q 3669 778 3244 343 
Q 2819 -91 2113 -91 
Q 1303 -91 875 529 
Q 447 1150 447 2328 
Q 447 3434 972 4092 
Q 1497 4750 2381 4750 
Q 2619 4750 2861 4703 
Q 3103 4656 3366 4563 
z
" transform="scale(0.015625)"/>
       </defs>
       <use xlink:href="#DejaVuSans-36"/>
       <use xlink:href="#DejaVuSans-30" transform="translate(63.623047 0)"/>
      </g>
     </g>
    </g>
    <g id="ytick_6">
     <g id="line2d_8"/>
     <g id="text_8">
      <!-- 80 -->
      <g style="fill: #262626" transform="translate(50.0725 157.586828) scale(0.15 -0.15)">
       <defs>
        <path id="DejaVuSans-38" d="M 2034 2216 
Q 1584 2216 1326 1975 
Q 1069 1734 1069 1313 
Q 1069 891 1326 650 
Q 1584 409 2034 409 
Q 2484 409 2743 651 
Q 3003 894 3003 1313 
Q 3003 1734 2745 1975 
Q 2488 2216 2034 2216 
z
M 1403 2484 
Q 997 2584 770 2862 
Q 544 3141 544 3541 
Q 544 4100 942 4425 
Q 1341 4750 2034 4750 
Q 2731 4750 3128 4425 
Q 3525 4100 3525 3541 
Q 3525 3141 3298 2862 
Q 3072 2584 2669 2484 
Q 3125 2378 3379 2068 
Q 3634 1759 3634 1313 
Q 3634 634 3220 271 
Q 2806 -91 2034 -91 
Q 1263 -91 848 271 
Q 434 634 434 1313 
Q 434 1759 690 2068 
Q 947 2378 1403 2484 
z
M 1172 3481 
Q 1172 3119 1398 2916 
Q 1625 2713 2034 2713 
Q 2441 2713 2670 2916 
Q 2900 3119 2900 3481 
Q 2900 3844 2670 4047 
Q 2441 4250 2034 4250 
Q 1625 4250 1398 4047 
Q 1172 3844 1172 3481 
z
" transform="scale(0.015625)"/>
       </defs>
       <use xlink:href="#DejaVuSans-38"/>
       <use xlink:href="#DejaVuSans-30" transform="translate(63.623047 0)"/>
      </g>
     </g>
    </g>
    <g id="ytick_7">
     <g id="line2d_9"/>
     <g id="text_9">
      <!-- 100 -->
      <g style="fill: #262626" transform="translate(40.52875 124.441685) scale(0.15 -0.15)">
       <use xlink:href="#DejaVuSans-31"/>
       <use xlink:href="#DejaVuSans-30" transform="translate(63.623047 0)"/>
       <use xlink:href="#DejaVuSans-30" transform="translate(127.246094 0)"/>
      </g>
     </g>
    </g>
    <g id="ytick_8">
     <g id="line2d_10"/>
     <g id="text_10">
      <!-- 120 -->
      <g style="fill: #262626" transform="translate(40.52875 91.296542) scale(0.15 -0.15)">
       <use xlink:href="#DejaVuSans-31"/>
       <use xlink:href="#DejaVuSans-32" transform="translate(63.623047 0)"/>
       <use xlink:href="#DejaVuSans-30" transform="translate(127.246094 0)"/>
      </g>
     </g>
    </g>
    <g id="ytick_9">
     <g id="line2d_11"/>
     <g id="text_11">
      <!-- 140 -->
      <g style="fill: #262626" transform="translate(40.52875 58.1514) scale(0.15 -0.15)">
       <use xlink:href="#DejaVuSans-31"/>
       <use xlink:href="#DejaVuSans-34" transform="translate(63.623047 0)"/>
       <use xlink:href="#DejaVuSans-30" transform="translate(127.246094 0)"/>
      </g>
     </g>
    </g>
    <g id="text_12">
     <!-- % of cells -->
     <g style="fill: #262626" transform="translate(29.759531 224.012656) rotate(-90) scale(0.18 -0.18)">
      <defs>
       <path id="DejaVuSans-25" d="M 4653 2053 
Q 4381 2053 4226 1822 
Q 4072 1591 4072 1178 
Q 4072 772 4226 539 
Q 4381 306 4653 306 
Q 4919 306 5073 539 
Q 5228 772 5228 1178 
Q 5228 1588 5073 1820 
Q 4919 2053 4653 2053 
z
M 4653 2450 
Q 5147 2450 5437 2106 
Q 5728 1763 5728 1178 
Q 5728 594 5436 251 
Q 5144 -91 4653 -91 
Q 4153 -91 3862 251 
Q 3572 594 3572 1178 
Q 3572 1766 3864 2108 
Q 4156 2450 4653 2450 
z
M 1428 4353 
Q 1159 4353 1004 4120 
Q 850 3888 850 3481 
Q 850 3069 1003 2837 
Q 1156 2606 1428 2606 
Q 1700 2606 1854 2837 
Q 2009 3069 2009 3481 
Q 2009 3884 1853 4118 
Q 1697 4353 1428 4353 
z
M 4250 4750 
L 4750 4750 
L 1831 -91 
L 1331 -91 
L 4250 4750 
z
M 1428 4750 
Q 1922 4750 2215 4408 
Q 2509 4066 2509 3481 
Q 2509 2891 2217 2550 
Q 1925 2209 1428 2209 
Q 931 2209 642 2551 
Q 353 2894 353 3481 
Q 353 4063 643 4406 
Q 934 4750 1428 4750 
z
" transform="scale(0.015625)"/>
       <path id="DejaVuSans-6f" d="M 1959 3097 
Q 1497 3097 1228 2736 
Q 959 2375 959 1747 
Q 959 1119 1226 758 
Q 1494 397 1959 397 
Q 2419 397 2687 759 
Q 2956 1122 2956 1747 
Q 2956 2369 2687 2733 
Q 2419 3097 1959 3097 
z
M 1959 3584 
Q 2709 3584 3137 3096 
Q 3566 2609 3566 1747 
Q 3566 888 3137 398 
Q 2709 -91 1959 -91 
Q 1206 -91 779 398 
Q 353 888 353 1747 
Q 353 2609 779 3096 
Q 1206 3584 1959 3584 
z
" transform="scale(0.015625)"/>
       <path id="DejaVuSans-66" d="M 2375 4863 
L 2375 4384 
L 1825 4384 
Q 1516 4384 1395 4259 
Q 1275 4134 1275 3809 
L 1275 3500 
L 2222 3500 
L 2222 3053 
L 1275 3053 
L 1275 0 
L 697 0 
L 697 3053 
L 147 3053 
L 147 3500 
L 697 3500 
L 697 3744 
Q 697 4328 969 4595 
Q 1241 4863 1831 4863 
L 2375 4863 
z
" transform="scale(0.015625)"/>
      </defs>
      <use xlink:href="#DejaVuSans-25"/>
      <use xlink:href="#DejaVuSans-20" transform="translate(95.019531 0)"/>
      <use xlink:href="#DejaVuSans-6f" transform="translate(126.806641 0)"/>
      <use xlink:href="#DejaVuSans-66" transform="translate(187.988281 0)"/>
      <use xlink:href="#DejaVuSans-20" transform="translate(223.193359 0)"/>
      <use xlink:href="#DejaVuSans-63" transform="translate(254.980469 0)"/>
      <use xlink:href="#DejaVuSans-65" transform="translate(309.960938 0)"/>
      <use xlink:href="#DejaVuSans-6c" transform="translate(371.484375 0)"/>
      <use xlink:href="#DejaVuSans-6c" transform="translate(399.267578 0)"/>
      <use xlink:href="#DejaVuSans-73" transform="translate(427.050781 0)"/>
     </g>
    </g>
   </g>
   <g id="FillBetweenPolyCollection_1">
    <defs>
     <path id="m32d4c10188" d="M 198.05427 -57.91496 
L 190.83573 -57.91496 
L 189.927817 -59.109771 
L 188.843183 -60.304582 
L 187.561124 -61.499393 
L 186.061757 -62.694204 
L 184.326881 -63.889015 
L 182.340912 -65.083826 
L 180.09185 -66.278637 
L 177.572244 -67.473448 
L 174.780081 -68.668259 
L 171.719547 -69.86307 
L 168.401598 -71.057881 
L 164.844283 -72.252692 
L 161.072774 -73.447503 
L 157.119065 -74.642313 
L 153.021332 -75.837124 
L 148.822956 -77.031935 
L 144.571237 -78.226746 
L 140.315866 -79.421557 
L 136.107202 -80.616368 
L 131.994479 -81.811179 
L 128.024009 -83.00599 
L 124.23753 -84.200801 
L 120.670755 -85.395612 
L 117.352261 -86.590423 
L 114.30276 -87.785234 
L 111.534808 -88.980045 
L 109.052979 -90.174856 
L 106.854472 -91.369667 
L 104.930116 -92.564478 
L 103.265678 -93.759288 
L 101.84339 -94.954099 
L 100.643543 -96.14891 
L 99.646051 -97.343721 
L 98.831828 -98.538532 
L 98.183887 -99.733343 
L 97.688062 -100.928154 
L 97.333301 -102.122965 
L 97.111513 -103.317776 
L 97.017 -104.512587 
L 97.045537 -105.707398 
L 97.193207 -106.902209 
L 97.455123 -108.09702 
L 97.824173 -109.291831 
L 98.289952 -110.486642 
L 98.838006 -111.681453 
L 99.44949 -112.876264 
L 100.101331 -114.071074 
L 100.766896 -115.265885 
L 101.417155 -116.460696 
L 102.022257 -117.655507 
L 102.553409 -118.850318 
L 102.984891 -120.045129 
L 103.296074 -121.23994 
L 103.47323 -122.434751 
L 103.511014 -123.629562 
L 103.413475 -124.824373 
L 103.194502 -126.019184 
L 102.877676 -127.213995 
L 102.495535 -128.408806 
L 102.088285 -129.603617 
L 101.70208 -130.798428 
L 101.386962 -131.993239 
L 101.194624 -133.188049 
L 101.176125 -134.38286 
L 101.379692 -135.577671 
L 101.84873 -136.772482 
L 102.620134 -137.967293 
L 103.722949 -139.162104 
L 105.177439 -140.356915 
L 106.99454 -141.551726 
L 109.175701 -142.746537 
L 111.713076 -143.941348 
L 114.590009 -145.136159 
L 117.781776 -146.33097 
L 121.256536 -147.525781 
L 124.976421 -148.720592 
L 128.898745 -149.915403 
L 132.977281 -151.110214 
L 137.163569 -152.305025 
L 141.408225 -153.499835 
L 145.662227 -154.694646 
L 149.878123 -155.889457 
L 154.011162 -157.084268 
L 158.020294 -158.279079 
L 161.86902 -159.47389 
L 165.52607 -160.668701 
L 168.965881 -161.863512 
L 172.168878 -163.058323 
L 175.121535 -164.253134 
L 177.816246 -165.447945 
L 180.251 -166.642756 
L 182.428898 -167.837567 
L 184.357544 -169.032378 
L 186.048334 -170.227189 
L 187.515695 -171.422 
L 188.77631 -172.616811 
L 189.848352 -173.811621 
L 190.750779 -175.006432 
L 191.502698 -176.201243 
L 197.387302 -176.201243 
L 197.387302 -176.201243 
L 198.139221 -175.006432 
L 199.041648 -173.811621 
L 200.11369 -172.616811 
L 201.374305 -171.422 
L 202.841666 -170.227189 
L 204.532456 -169.032378 
L 206.461102 -167.837567 
L 208.639 -166.642756 
L 211.073754 -165.447945 
L 213.768465 -164.253134 
L 216.721122 -163.058323 
L 219.924119 -161.863512 
L 223.36393 -160.668701 
L 227.02098 -159.47389 
L 230.869706 -158.279079 
L 234.878838 -157.084268 
L 239.011877 -155.889457 
L 243.227773 -154.694646 
L 247.481775 -153.499835 
L 251.726431 -152.305025 
L 255.912719 -151.110214 
L 259.991255 -149.915403 
L 263.913579 -148.720592 
L 267.633464 -147.525781 
L 271.108224 -146.33097 
L 274.299991 -145.136159 
L 277.176924 -143.941348 
L 279.714299 -142.746537 
L 281.89546 -141.551726 
L 283.712561 -140.356915 
L 285.167051 -139.162104 
L 286.269866 -137.967293 
L 287.04127 -136.772482 
L 287.510308 -135.577671 
L 287.713875 -134.38286 
L 287.695376 -133.188049 
L 287.503038 -131.993239 
L 287.18792 -130.798428 
L 286.801715 -129.603617 
L 286.394465 -128.408806 
L 286.012324 -127.213995 
L 285.695498 -126.019184 
L 285.476525 -124.824373 
L 285.378986 -123.629562 
L 285.41677 -122.434751 
L 285.593926 -121.23994 
L 285.905109 -120.045129 
L 286.336591 -118.850318 
L 286.867743 -117.655507 
L 287.472845 -116.460696 
L 288.123104 -115.265885 
L 288.788669 -114.071074 
L 289.44051 -112.876264 
L 290.051994 -111.681453 
L 290.600048 -110.486642 
L 291.065827 -109.291831 
L 291.434877 -108.09702 
L 291.696793 -106.902209 
L 291.844463 -105.707398 
L 291.873 -104.512587 
L 291.778487 -103.317776 
L 291.556699 -102.122965 
L 291.201938 -100.928154 
L 290.706113 -99.733343 
L 290.058172 -98.538532 
L 289.243949 -97.343721 
L 288.246457 -96.14891 
L 287.04661 -94.954099 
L 285.624322 -93.759288 
L 283.959884 -92.564478 
L 282.035528 -91.369667 
L 279.837021 -90.174856 
L 277.355192 -88.980045 
L 274.58724 -87.785234 
L 271.537739 -86.590423 
L 268.219245 -85.395612 
L 264.65247 -84.200801 
L 260.865991 -83.00599 
L 256.895521 -81.811179 
L 252.782798 -80.616368 
L 248.574134 -79.421557 
L 244.318763 -78.226746 
L 240.067044 -77.031935 
L 235.868668 -75.837124 
L 231.770935 -74.642313 
L 227.817226 -73.447503 
L 224.045717 -72.252692 
L 220.488402 -71.057881 
L 217.170453 -69.86307 
L 214.109919 -68.668259 
L 211.317756 -67.473448 
L 208.79815 -66.278637 
L 206.549088 -65.083826 
L 204.563119 -63.889015 
L 202.828243 -62.694204 
L 201.328876 -61.499393 
L 200.046817 -60.304582 
L 198.962183 -59.109771 
L 198.05427 -57.91496 
z
" style="stroke: #262626; stroke-width: 1.25"/>
    </defs>
    <g clip-path="url(#pe67e60b201)">
     <use xlink:href="#m32d4c10188" x="0" y="360" style="fill: #3f7010; stroke: #262626; stroke-width: 1.25"/>
    </g>
   </g>
   <g id="FillBetweenPolyCollection_2">
    <defs>
     <path id="mc1362b31cb" d="M 440.957302 -140.587328 
L 435.072698 -140.587328 
L 434.320779 -141.782139 
L 433.418352 -142.97695 
L 432.34631 -144.171761 
L 431.085695 -145.366572 
L 429.618334 -146.561383 
L 427.927544 -147.756194 
L 425.998898 -148.951005 
L 423.821 -150.145816 
L 421.386246 -151.340627 
L 418.691535 -152.535437 
L 415.738878 -153.730248 
L 412.535881 -154.925059 
L 409.09607 -156.11987 
L 405.43902 -157.314681 
L 401.590294 -158.509492 
L 397.581162 -159.704303 
L 393.448123 -160.899114 
L 389.232227 -162.093925 
L 384.978225 -163.288736 
L 380.733569 -164.483547 
L 376.547281 -165.678358 
L 372.468745 -166.873169 
L 368.546421 -168.06798 
L 364.826536 -169.262791 
L 361.351776 -170.457602 
L 358.160009 -171.652413 
L 355.283076 -172.847223 
L 352.745701 -174.042034 
L 350.56454 -175.236845 
L 348.747439 -176.431656 
L 347.292949 -177.626467 
L 346.190134 -178.821278 
L 345.41873 -180.016089 
L 344.949692 -181.2109 
L 344.746125 -182.405711 
L 344.764624 -183.600522 
L 344.956962 -184.795333 
L 345.27208 -185.990144 
L 345.658285 -187.184955 
L 346.065535 -188.379766 
L 346.447676 -189.574577 
L 346.764502 -190.769388 
L 346.983475 -191.964199 
L 347.081014 -193.159009 
L 347.04323 -194.35382 
L 346.866074 -195.548631 
L 346.554891 -196.743442 
L 346.123409 -197.938253 
L 345.592257 -199.133064 
L 344.987155 -200.327875 
L 344.336896 -201.522686 
L 343.671331 -202.717497 
L 343.01949 -203.912308 
L 342.408006 -205.107119 
L 341.859952 -206.30193 
L 341.394173 -207.496741 
L 341.025123 -208.691552 
L 340.763207 -209.886363 
L 340.615537 -211.081174 
L 340.587 -212.275984 
L 340.681513 -213.470795 
L 340.903301 -214.665606 
L 341.258062 -215.860417 
L 341.753887 -217.055228 
L 342.401828 -218.250039 
L 343.216051 -219.44485 
L 344.213543 -220.639661 
L 345.41339 -221.834472 
L 346.835678 -223.029283 
L 348.500116 -224.224094 
L 350.424472 -225.418905 
L 352.622979 -226.613716 
L 355.104808 -227.808527 
L 357.87276 -229.003338 
L 360.922261 -230.198149 
L 364.240755 -231.39296 
L 367.80753 -232.58777 
L 371.594009 -233.782581 
L 375.564479 -234.977392 
L 379.677202 -236.172203 
L 383.885866 -237.367014 
L 388.141237 -238.561825 
L 392.392956 -239.756636 
L 396.591332 -240.951447 
L 400.689065 -242.146258 
L 404.642774 -243.341069 
L 408.414283 -244.53588 
L 411.971598 -245.730691 
L 415.289547 -246.925502 
L 418.350081 -248.120313 
L 421.142244 -249.315124 
L 423.66185 -250.509935 
L 425.910912 -251.704746 
L 427.896881 -252.899556 
L 429.631757 -254.094367 
L 431.131124 -255.289178 
L 432.413183 -256.483989 
L 433.497817 -257.6788 
L 434.40573 -258.873611 
L 441.62427 -258.873611 
L 441.62427 -258.873611 
L 442.532183 -257.6788 
L 443.616817 -256.483989 
L 444.898876 -255.289178 
L 446.398243 -254.094367 
L 448.133119 -252.899556 
L 450.119088 -251.704746 
L 452.36815 -250.509935 
L 454.887756 -249.315124 
L 457.679919 -248.120313 
L 460.740453 -246.925502 
L 464.058402 -245.730691 
L 467.615717 -244.53588 
L 471.387226 -243.341069 
L 475.340935 -242.146258 
L 479.438668 -240.951447 
L 483.637044 -239.756636 
L 487.888763 -238.561825 
L 492.144134 -237.367014 
L 496.352798 -236.172203 
L 500.465521 -234.977392 
L 504.435991 -233.782581 
L 508.22247 -232.58777 
L 511.789245 -231.39296 
L 515.107739 -230.198149 
L 518.15724 -229.003338 
L 520.925192 -227.808527 
L 523.407021 -226.613716 
L 525.605528 -225.418905 
L 527.529884 -224.224094 
L 529.194322 -223.029283 
L 530.61661 -221.834472 
L 531.816457 -220.639661 
L 532.813949 -219.44485 
L 533.628172 -218.250039 
L 534.276113 -217.055228 
L 534.771938 -215.860417 
L 535.126699 -214.665606 
L 535.348487 -213.470795 
L 535.443 -212.275984 
L 535.414463 -211.081174 
L 535.266793 -209.886363 
L 535.004877 -208.691552 
L 534.635827 -207.496741 
L 534.170048 -206.30193 
L 533.621994 -205.107119 
L 533.01051 -203.912308 
L 532.358669 -202.717497 
L 531.693104 -201.522686 
L 531.042845 -200.327875 
L 530.437743 -199.133064 
L 529.906591 -197.938253 
L 529.475109 -196.743442 
L 529.163926 -195.548631 
L 528.98677 -194.35382 
L 528.948986 -193.159009 
L 529.046525 -191.964199 
L 529.265498 -190.769388 
L 529.582324 -189.574577 
L 529.964465 -188.379766 
L 530.371715 -187.184955 
L 530.75792 -185.990144 
L 531.073038 -184.795333 
L 531.265376 -183.600522 
L 531.283875 -182.405711 
L 531.080308 -181.2109 
L 530.61127 -180.016089 
L 529.839866 -178.821278 
L 528.737051 -177.626467 
L 527.282561 -176.431656 
L 525.46546 -175.236845 
L 523.284299 -174.042034 
L 520.746924 -172.847223 
L 517.869991 -171.652413 
L 514.678224 -170.457602 
L 511.203464 -169.262791 
L 507.483579 -168.06798 
L 503.561255 -166.873169 
L 499.482719 -165.678358 
L 495.296431 -164.483547 
L 491.051775 -163.288736 
L 486.797773 -162.093925 
L 482.581877 -160.899114 
L 478.448838 -159.704303 
L 474.439706 -158.509492 
L 470.59098 -157.314681 
L 466.93393 -156.11987 
L 463.494119 -154.925059 
L 460.291122 -153.730248 
L 457.338465 -152.535437 
L 454.643754 -151.340627 
L 452.209 -150.145816 
L 450.031102 -148.951005 
L 448.102456 -147.756194 
L 446.411666 -146.561383 
L 444.944305 -145.366572 
L 443.68369 -144.171761 
L 442.611648 -142.97695 
L 441.709221 -141.782139 
L 440.957302 -140.587328 
z
" style="stroke: #4c4c4c; stroke-width: 1.25"/>
    </defs>
    <g clip-path="url(#pe67e60b201)">
     <use xlink:href="#mc1362b31cb" x="0" y="360" style="fill: #20df20; stroke: #4c4c4c; stroke-width: 1.25"/>
    </g>
   </g>
   <g id="line2d_12">
    <path d="M 194.445 278.753892 
L 194.445 207.129905 
" clip-path="url(#pe67e60b201)" style="fill: none; stroke: #262626; stroke-width: 1.875; stroke-linecap: round"/>
   </g>
   <g id="line2d_13">
    <path d="M 194.445 261.739731 
L 194.445 225.477216 
" clip-path="url(#pe67e60b201)" style="fill: none; stroke: #262626; stroke-width: 5.625; stroke-linecap: round"/>
   </g>
   <g id="line2d_14">
    <path d="M 194.445 245.010068 
" clip-path="url(#pe67e60b201)" style="fill: none; stroke: #262626; stroke-width: 2; stroke-linecap: round"/>
    <defs>
     <path id="m5de068581c" d="M 2.34375 0 
L -2.34375 -0 
" style="stroke: #ffffff; stroke-width: 1.125"/>
    </defs>
    <g clip-path="url(#pe67e60b201)">
     <use xlink:href="#m5de068581c" x="194.445" y="245.010068" style="fill: #ffffff; stroke: #ffffff; stroke-width: 1.125"/>
    </g>
   </g>
   <g id="line2d_15">
    <path d="M 438.015 196.081524 
L 438.015 124.457537 
" clip-path="url(#pe67e60b201)" style="fill: none; stroke: #4c4c4c; stroke-width: 1.875; stroke-linecap: round"/>
   </g>
   <g id="line2d_16">
    <path d="M 438.015 177.734212 
L 438.015 141.471697 
" clip-path="url(#pe67e60b201)" style="fill: none; stroke: #4c4c4c; stroke-width: 5.625; stroke-linecap: round"/>
   </g>
   <g id="line2d_17">
    <path d="M 438.015 158.201361 
" clip-path="url(#pe67e60b201)" style="fill: none; stroke: #4c4c4c; stroke-width: 2; stroke-linecap: round"/>
    <g clip-path="url(#pe67e60b201)">
     <use xlink:href="#m5de068581c" x="438.015" y="158.201361" style="fill: #ffffff; stroke: #ffffff; stroke-width: 1.125"/>
    </g>
   </g>
   <g id="patch_3">
    <path d="M 72.66 325.9 
L 72.66 35.88 
" style="fill: none; stroke: #808080; stroke-width: 1.25; stroke-linejoin: miter; stroke-linecap: square"/>
   </g>
   <g id="patch_4">
    <path d="M 559.8 325.9 
L 559.8 35.88 
" style="fill: none; stroke: #808080; stroke-width: 1.25; stroke-linejoin: miter; stroke-linecap: square"/>
   </g>
   <g id="patch_5">
    <path d="M 72.66 325.9 
L 559.8 325.9 
" style="fill: none; stroke: #808080; stroke-width: 1.25; stroke-linejoin: miter; stroke-linecap: square"/>
   </g>
   <g id="patch_6">
    <path d="M 72.66 35.88 
L 559.8 35.88 
" style="fill: none; stroke: #808080; stroke-width: 1.25; stroke-linejoin: miter; stroke-linecap: square"/>
   </g>
   <g id="text_13">
    <!-- p=5.365e-31 -->
    <g style="fill: #262626" transform="translate(266.848359 77.311429) scale(0.15 -0.15)">
     <defs>
      <path id="DejaVuSans-70" d="M 1159 525 
L 1159 -1331 
L 581 -1331 
L 581 3500 
L 1159 3500 
L 1159 2969 
Q 1341 3281 1617 3432 
Q 1894 3584 2278 3584 
Q 2916 3584 3314 3078 
Q 3713 2572 3713 1747 
Q 3713 922 3314 415 
Q 2916 -91 2278 -91 
Q 1894 -91 1617 61 
Q 1341 213 1159 525 
z
M 3116 1747 
Q 3116 2381 2855 2742 
Q 2594 3103 2138 3103 
Q 1681 3103 1420 2742 
Q 1159 2381 1159 1747 
Q 1159 1113 1420 752 
Q 1681 391 2138 391 
Q 2594 391 2855 752 
Q 3116 1113 3116 1747 
z
" transform="scale(0.015625)"/>
      <path id="DejaVuSans-3d" d="M 678 2906 
L 4684 2906 
L 4684 2381 
L 678 2381 
L 678 2906 
z
M 678 1631 
L 4684 1631 
L 4684 1100 
L 678 1100 
L 678 1631 
z
" transform="scale(0.015625)"/>
      <path id="DejaVuSans-35" d="M 691 4666 
L 3169 4666 
L 3169 4134 
L 1269 4134 
L 1269 2991 
Q 1406 3038 1543 3061 
Q 1681 3084 1819 3084 
Q 2600 3084 3056 2656 
Q 3513 2228 3513 1497 
Q 3513 744 3044 326 
Q 2575 -91 1722 -91 
Q 1428 -91 1123 -41 
Q 819 9 494 109 
L 494 744 
Q 775 591 1075 516 
Q 1375 441 1709 441 
Q 2250 441 2565 725 
Q 2881 1009 2881 1497 
Q 2881 1984 2565 2268 
Q 2250 2553 1709 2553 
Q 1456 2553 1204 2497 
Q 953 2441 691 2322 
L 691 4666 
z
" transform="scale(0.015625)"/>
      <path id="DejaVuSans-2e" d="M 684 794 
L 1344 794 
L 1344 0 
L 684 0 
L 684 794 
z
" transform="scale(0.015625)"/>
      <path id="DejaVuSans-33" d="M 2597 2516 
Q 3050 2419 3304 2112 
Q 3559 1806 3559 1356 
Q 3559 666 3084 287 
Q 2609 -91 1734 -91 
Q 1441 -91 1130 -33 
Q 819 25 488 141 
L 488 750 
Q 750 597 1062 519 
Q 1375 441 1716 441 
Q 2309 441 2620 675 
Q 2931 909 2931 1356 
Q 2931 1769 2642 2001 
Q 2353 2234 1838 2234 
L 1294 2234 
L 1294 2753 
L 1863 2753 
Q 2328 2753 2575 2939 
Q 2822 3125 2822 3475 
Q 2822 3834 2567 4026 
Q 2313 4219 1838 4219 
Q 1578 4219 1281 4162 
Q 984 4106 628 3988 
L 628 4550 
Q 988 4650 1302 4700 
Q 1616 4750 1894 4750 
Q 2613 4750 3031 4423 
Q 3450 4097 3450 3541 
Q 3450 3153 3228 2886 
Q 3006 2619 2597 2516 
z
" transform="scale(0.015625)"/>
      <path id="DejaVuSans-2d" d="M 313 2009 
L 1997 2009 
L 1997 1497 
L 313 1497 
L 313 2009 
z
" transform="scale(0.015625)"/>
     </defs>
     <use xlink:href="#DejaVuSans-70"/>
     <use xlink:href="#DejaVuSans-3d" transform="translate(63.476562 0)"/>
     <use xlink:href="#DejaVuSans-35" transform="translate(147.265625 0)"/>
     <use xlink:href="#DejaVuSans-2e" transform="translate(210.888672 0)"/>
     <use xlink:href="#DejaVuSans-33" transform="translate(242.675781 0)"/>
     <use xlink:href="#DejaVuSans-36" transform="translate(306.298828 0)"/>
     <use xlink:href="#DejaVuSans-35" transform="translate(369.921875 0)"/>
     <use xlink:href="#DejaVuSans-65" transform="translate(433.544922 0)"/>
     <use xlink:href="#DejaVuSans-2d" transform="translate(495.068359 0)"/>
     <use xlink:href="#DejaVuSans-33" transform="translate(531.152344 0)"/>
     <use xlink:href="#DejaVuSans-31" transform="translate(594.775391 0)"/>
    </g>
   </g>
   <g id="text_14">
    <!-- All Animals -->
    <g style="fill: #262626" transform="translate(266.38125 29.88) scale(0.18 -0.18)">
     <defs>
      <path id="DejaVuSans-41" d="M 2188 4044 
L 1331 1722 
L 3047 1722 
L 2188 4044 
z
M 1831 4666 
L 2547 4666 
L 4325 0 
L 3669 0 
L 3244 1197 
L 1141 1197 
L 716 0 
L 50 0 
L 1831 4666 
z
" transform="scale(0.015625)"/>
      <path id="DejaVuSans-6e" d="M 3513 2113 
L 3513 0 
L 2938 0 
L 2938 2094 
Q 2938 2591 2744 2837 
Q 2550 3084 2163 3084 
Q 1697 3084 1428 2787 
Q 1159 2491 1159 1978 
L 1159 0 
L 581 0 
L 581 3500 
L 1159 3500 
L 1159 2956 
Q 1366 3272 1645 3428 
Q 1925 3584 2291 3584 
Q 2894 3584 3203 3211 
Q 3513 2838 3513 2113 
z
" transform="scale(0.015625)"/>
      <path id="DejaVuSans-69" d="M 603 3500 
L 1178 3500 
L 1178 0 
L 603 0 
L 603 3500 
z
M 603 4863 
L 1178 4863 
L 1178 4134 
L 603 4134 
L 603 4863 
z
" transform="scale(0.015625)"/>
      <path id="DejaVuSans-6d" d="M 3328 2828 
Q 3544 3216 3844 3400 
Q 4144 3584 4550 3584 
Q 5097 3584 5394 3201 
Q 5691 2819 5691 2113 
L 5691 0 
L 5113 0 
L 5113 2094 
Q 5113 2597 4934 2840 
Q 4756 3084 4391 3084 
Q 3944 3084 3684 2787 
Q 3425 2491 3425 1978 
L 3425 0 
L 2847 0 
L 2847 2094 
Q 2847 2600 2669 2842 
Q 2491 3084 2119 3084 
Q 1678 3084 1418 2786 
Q 1159 2488 1159 1978 
L 1159 0 
L 581 0 
L 581 3500 
L 1159 3500 
L 1159 2956 
Q 1356 3278 1631 3431 
Q 1906 3584 2284 3584 
Q 2666 3584 2933 3390 
Q 3200 3197 3328 2828 
z
" transform="scale(0.015625)"/>
      <path id="DejaVuSans-61" d="M 2194 1759 
Q 1497 1759 1228 1600 
Q 959 1441 959 1056 
Q 959 750 1161 570 
Q 1363 391 1709 391 
Q 2188 391 2477 730 
Q 2766 1069 2766 1631 
L 2766 1759 
L 2194 1759 
z
M 3341 1997 
L 3341 0 
L 2766 0 
L 2766 531 
Q 2569 213 2275 61 
Q 1981 -91 1556 -91 
Q 1019 -91 701 211 
Q 384 513 384 1019 
Q 384 1609 779 1909 
Q 1175 2209 1959 2209 
L 2766 2209 
L 2766 2266 
Q 2766 2663 2505 2880 
Q 2244 3097 1772 3097 
Q 1472 3097 1187 3025 
Q 903 2953 641 2809 
L 641 3341 
Q 956 3463 1253 3523 
Q 1550 3584 1831 3584 
Q 2591 3584 2966 3190 
Q 3341 2797 3341 1997 
z
" transform="scale(0.015625)"/>
     </defs>
     <use xlink:href="#DejaVuSans-41"/>
     <use xlink:href="#DejaVuSans-6c" transform="translate(68.408203 0)"/>
     <use xlink:href="#DejaVuSans-6c" transform="translate(96.191406 0)"/>
     <use xlink:href="#DejaVuSans-20" transform="translate(123.974609 0)"/>
     <use xlink:href="#DejaVuSans-41" transform="translate(155.761719 0)"/>
     <use xlink:href="#DejaVuSans-6e" transform="translate(224.169922 0)"/>
     <use xlink:href="#DejaVuSans-69" transform="translate(287.548828 0)"/>
     <use xlink:href="#DejaVuSans-6d" transform="translate(315.332031 0)"/>
     <use xlink:href="#DejaVuSans-61" transform="translate(412.744141 0)"/>
     <use xlink:href="#DejaVuSans-6c" transform="translate(474.023438 0)"/>
     <use xlink:href="#DejaVuSans-73" transform="translate(501.806641 0)"/>
    </g>
   </g>
  </g>
 </g>
 <defs>
  <clipPath id="pe67e60b201">
   <rect x="72.66" y="35.88" width="487.14" height="290.02"/>
  </clipPath>
 </defs>
</svg>
